<svg height="512" width="512" xmlns="http://www.w3.org/2000/svg" xmlns:xlink="http://www.w3.org/1999/xlink">
  <linearGradient id="a">
    <stop offset="0" stop-color="#999"/>
    <stop offset="1" stop-color="#f9f9f9"/>
  </linearGradient>
  <linearGradient id="e" gradientUnits="userSpaceOnUse" x1="2937.115" x2="3097.115" xlink:href="#a" y1="-172.966" y2="179.034"/>
  <linearGradient id="b" gradientUnits="userSpaceOnUse" x1="2716.025" x2="2969.115" xlink:href="#a" y1="-300.966" y2="179.034"/>
  <linearGradient id="c" gradientUnits="userSpaceOnUse" x1="2809.115" x2="2969.115" xlink:href="#a" y1="-172.966" y2="179.034"/>
  <linearGradient id="d" gradientUnits="userSpaceOnUse" x1="2873.115" x2="3033.115" xlink:href="#a" y1="-172.966" y2="179.034"/>
  <g stroke="#000" stroke-linecap="round" stroke-linejoin="round" stroke-miterlimit="10">
    <path d="M2713.115 179.034l96-352h192l-34.91-128h-250.18l-130.91 480z" fill="url(#b)" fill-rule="evenodd" stroke-width="12" transform="matrix(.97789 0 0 -.97789 -2522.293 194.942)"/>
    <path d="M130.83 19.867l93.878 344.217h187.754l-34.138 125.17H133.676L5.66 19.867z" fill="none" stroke-width="1.95578"/>
    <path d="M2713.115 179.034l96-352h64l96 352h-64l-64-234.668-64 234.668z" fill="url(#c)" fill-rule="evenodd" stroke-width="12" transform="matrix(.97789 0 0 -.97789 -2522.293 194.942)"/>
    <path d="M130.83 19.867l93.878 344.217h62.584L381.17 19.867h-62.585L256 249.347l-62.585-229.48z" fill="none" stroke-width="1.95578"/>
    <path d="M2873.115-172.966h64l96 352h-64z" fill="url(#d)" fill-rule="evenodd" stroke-width="12" transform="matrix(.97789 0 0 -.97789 -2522.293 194.942)"/>
    <path d="M287.292 364.084h62.585l93.878-344.217H381.17z" fill="none" stroke-width="1.95578"/>
  </g>
  <path d="M349.877 364.084h62.585L506.34 19.867h-62.584z" fill="#bebebe" fill-rule="evenodd"/>
  <path d="M2937.115-172.966h64l96 352h-64z" stroke="#000" stroke-width="12" stroke-linecap="round" stroke-linejoin="round" stroke-miterlimit="10" fill="url(#e)" transform="matrix(.97789 0 0 -.97789 -2522.293 194.942)"/>
</svg>
